<svg width="86" height="123" viewBox="0 0 86 123" fill="none" xmlns="http://www.w3.org/2000/svg">
<path d="M72.6719 51.2812H62.125V56.625H72.6719C74.0781 56.625 75.3438 57.75 75.3438 59.2969C75.3438 60.8437 74.2187 61.9688 72.6719 61.9688H6.85938C5.45313 61.9688 4.1875 63.0937 4.1875 64.6406C4.1875 66.0469 5.3125 67.3125 6.85938 67.3125H72.8125C77.1719 67.3125 80.6875 63.7969 80.6875 59.4375C80.6875 54.7969 77.0312 51.2812 72.6719 51.2812ZM74.6406 33.1406L69.4375 32.7187C69.4375 32.5781 72.6719 13.3125 73.375 9.375C73.7969 7.125 74.6406 0.796875 82.6562 0.796875V6.14062C79.4219 6.14062 79 7.40625 78.7188 9.79688C77.875 13.7344 74.6406 32.8594 74.6406 33.1406Z" fill="#B2C1C0"/>
<path d="M74.9219 14.2969H3.625C0.953123 14.2969 0.531248 16.8281 0.953123 18.2344L8.96875 53.9531C9.39062 55.3594 10.7969 56.4844 12.3437 56.4844H68.3125C69.7188 56.4844 71.125 55.3594 71.4062 53.8125L77.3125 16.8281C77.4531 15.5625 76.3281 14.2969 74.9219 14.2969ZM7.70312 26.25L6.29687 20.9062C6.15625 20.2031 6.57812 19.6406 7.28125 19.6406H17.2656C17.9687 19.6406 18.6719 20.2031 18.6719 20.9062L19.2344 26.25C19.375 26.9531 18.8125 27.5156 18.1094 27.5156H9.25C8.54687 27.5156 7.84375 26.9531 7.70312 26.25ZM12.2031 39.3281C11.5 39.3281 10.7969 38.7656 10.5156 38.0625L9.53125 33.9844C9.39062 33.2812 9.8125 32.7188 10.5156 32.7188H18.5312C19.2344 32.7188 19.9375 33.2812 19.9375 33.9844L20.3594 37.9219C20.5 38.625 19.9375 39.1875 19.2344 39.1875C19.375 39.3281 12.2031 39.3281 12.2031 39.3281ZM20.6406 51.2812H15.1562C14.4531 51.2812 13.75 50.7188 13.4687 50.0156L12.4844 45.9375C12.3437 45.2344 12.7656 44.6719 13.4687 44.6719H19.7969C20.5 44.6719 21.2031 45.2344 21.2031 45.9375L21.625 49.875C21.9062 50.5781 21.3437 51.2812 20.6406 51.2812ZM36.8125 49.875C36.8125 50.5781 36.25 51.1406 35.5469 51.1406H28.6562C27.9531 51.1406 27.25 50.5781 27.25 49.875L26.8281 45.9375C26.6875 45.2344 27.25 44.6719 27.9531 44.6719H35.5469C36.25 44.6719 36.8125 45.2344 36.8125 45.9375V49.875ZM36.8125 38.0625C36.8125 38.7656 36.25 39.3281 35.5469 39.3281H27.3906C26.6875 39.3281 25.9844 38.7656 25.9844 38.0625L25.5625 34.125C25.4219 33.4219 25.9844 32.8594 26.6875 32.8594H35.5469C36.25 32.8594 36.8125 33.4219 36.8125 34.125V38.0625ZM36.8125 26.25C36.8125 26.9531 36.25 27.5156 35.5469 27.5156H26.125C25.4219 27.5156 24.7188 26.9531 24.7188 26.25L24.0156 20.9062C23.875 20.2031 24.4375 19.6406 25.1406 19.6406H35.4062C36.1094 19.6406 36.6719 20.2031 36.6719 20.9062C36.8125 20.9062 36.8125 26.25 36.8125 26.25ZM51.1562 49.875C51.0156 50.5781 50.4531 51.1406 49.75 51.1406H43.5625C42.8594 51.1406 42.2969 50.5781 42.2969 49.875V45.9375C42.2969 45.2344 42.8594 44.6719 43.5625 44.6719H50.4531C51.1562 44.6719 51.7187 45.2344 51.5781 45.9375L51.1562 49.875ZM52.4219 38.0625C52.2812 38.7656 51.7188 39.3281 51.0156 39.3281H43.5625C42.8594 39.3281 42.2969 38.7656 42.2969 38.0625V34.125C42.2969 33.4219 42.8594 32.8594 43.5625 32.8594H51.7188C52.4219 32.8594 52.9844 33.4219 52.8438 34.125L52.4219 38.0625ZM53.6875 26.25C53.5469 26.9531 52.9844 27.5156 52.2812 27.5156H43.5625C42.8594 27.5156 42.2969 26.9531 42.2969 26.25V20.9062C42.2969 20.2031 42.8594 19.6406 43.5625 19.6406H53.125C53.8281 19.6406 54.3906 20.2031 54.25 20.9062L53.6875 26.25ZM65.9219 49.875C65.7812 50.5781 65.0781 51.1406 64.375 51.1406H57.625C56.9219 51.1406 56.3594 50.5781 56.5 49.875L56.9219 45.9375C57.0625 45.2344 57.625 44.6719 58.3281 44.6719H65.5C66.2031 44.6719 66.7656 45.2344 66.625 45.9375L65.9219 49.875ZM67.75 38.0625C67.6094 38.7656 66.9062 39.3281 66.2031 39.3281H58.75C58.0469 39.3281 57.4844 38.7656 57.625 38.0625L58.0469 34.125C58.1875 33.4219 58.75 32.8594 59.4531 32.8594H67.1875C67.8906 32.8594 68.4531 33.4219 68.3125 34.125L67.75 38.0625ZM69.5781 26.25C69.4375 26.9531 68.7344 27.5156 68.0312 27.5156H60.0156C59.3125 27.5156 58.75 26.9531 58.8906 26.25L59.4531 20.9062C59.5938 20.2031 60.1562 19.6406 60.8594 19.6406H69.1562C69.8594 19.6406 70.4219 20.2031 70.2812 20.9062L69.5781 26.25Z" fill="#00FFC2"/>
<path d="M15.2969 84.1875C19.6461 84.1875 23.1719 80.6617 23.1719 76.3125C23.1719 71.9633 19.6461 68.4375 15.2969 68.4375C10.9476 68.4375 7.42188 71.9633 7.42188 76.3125C7.42188 80.6617 10.9476 84.1875 15.2969 84.1875Z" fill="#62727A"/>
<path d="M15.2969 80.25C17.4715 80.25 19.2344 78.4871 19.2344 76.3125C19.2344 74.1379 17.4715 72.375 15.2969 72.375C13.1223 72.375 11.3594 74.1379 11.3594 76.3125C11.3594 78.4871 13.1223 80.25 15.2969 80.25Z" fill="white"/>
<path d="M62.8281 84.1875C67.1774 84.1875 70.7031 80.6617 70.7031 76.3125C70.7031 71.9633 67.1774 68.4375 62.8281 68.4375C58.4789 68.4375 54.9531 71.9633 54.9531 76.3125C54.9531 80.6617 58.4789 84.1875 62.8281 84.1875Z" fill="#62727A"/>
<path d="M66.7656 76.3125C66.7656 78.5625 64.9375 80.25 62.8281 80.25C60.5781 80.25 58.8906 78.4219 58.8906 76.3125C58.8906 74.0625 60.7187 72.375 62.8281 72.375C64.9375 72.375 66.7656 74.0625 66.7656 76.3125Z" fill="white"/>
<path d="M15.2969 65.7656C9.53125 65.7656 4.75 70.5469 4.75 76.3125H25.8437C25.8437 70.4063 21.2031 65.7656 15.2969 65.7656ZM62.8281 65.7656C57.0625 65.7656 52.2812 70.5469 52.2812 76.3125H73.375C73.375 70.4063 68.5937 65.7656 62.8281 65.7656Z" fill="#00FFC2"/>
<path d="M4.968 94.3C6.024 94.3 6.816 94.424 7.344 94.672C7.872 94.912 8.136 95.3 8.136 95.836C8.136 96.364 7.972 96.768 7.644 97.048C7.324 97.32 6.956 97.456 6.54 97.456C6.124 97.456 5.748 97.352 5.412 97.144C5.084 96.928 4.856 96.644 4.728 96.292C4.432 96.292 4.148 96.392 3.876 96.592C3.612 96.784 3.444 97.036 3.372 97.348C4.956 97.732 6.092 98.18 6.78 98.692C7.468 99.204 7.812 99.86 7.812 100.66C7.812 101.46 7.448 102.1 6.72 102.58C6 103.06 5.024 103.3 3.792 103.3C2.568 103.3 1.7 103.132 1.188 102.796C0.676 102.46 0.42 102.016 0.42 101.464C0.42 100.912 0.592 100.404 0.936 99.94C1.104 100.3 1.424 100.624 1.896 100.912C2.376 101.2 2.848 101.344 3.312 101.344C4.168 101.344 4.712 101.072 4.944 100.528C3.616 100.352 2.604 99.984 1.908 99.424C1.212 98.856 0.864 98.172 0.864 97.372C0.864 96.836 1.008 96.36 1.296 95.944C1.584 95.52 1.952 95.196 2.4 94.972C3.28 94.524 4.136 94.3 4.968 94.3ZM15.5457 95.8C16.5137 95.8 16.9977 96.284 16.9977 97.252C16.9977 97.668 16.8777 98.372 16.6377 99.364C16.4057 100.356 16.2897 101.104 16.2897 101.608C16.2897 102.112 16.3737 102.48 16.5417 102.712C16.1177 103.104 15.6697 103.3 15.1977 103.3C14.2777 103.3 13.8177 102.804 13.8177 101.812C13.8177 101.444 13.9377 100.82 14.1777 99.94C14.4177 99.06 14.5377 98.488 14.5377 98.224C14.5377 97.864 14.4017 97.684 14.1297 97.684C13.9057 97.684 13.6497 97.784 13.3617 97.984C13.0737 98.176 12.7937 98.44 12.5217 98.776C12.2577 99.104 12.0337 99.524 11.8497 100.036C11.6657 100.54 11.5737 101.056 11.5737 101.584C11.5737 102.104 11.6577 102.48 11.8257 102.712C11.4017 103.104 10.9537 103.3 10.4817 103.3C9.56172 103.3 9.10172 102.804 9.10172 101.812C9.10172 101.22 9.26172 100.02 9.58172 98.212C9.85372 96.62 10.0097 95.728 10.0497 95.536L9.37772 94.576C10.3777 93.992 11.1657 93.7 11.7417 93.7C12.0697 93.7 12.3017 93.768 12.4377 93.904C12.5737 94.032 12.6417 94.248 12.6417 94.552C12.6417 95.128 12.5857 95.756 12.4737 96.436C12.3617 97.116 12.2577 97.616 12.1617 97.936L12.2817 97.996C13.1377 96.532 14.2257 95.8 15.5457 95.8ZM23.999 96.712C24.447 96.712 24.831 96.892 25.151 97.252C25.479 97.612 25.643 98.136 25.643 98.824C25.643 99.504 25.523 100.136 25.283 100.72C25.043 101.296 24.727 101.768 24.335 102.136C23.943 102.504 23.499 102.792 23.003 103C22.507 103.2 21.999 103.3 21.479 103.3C20.431 103.3 19.603 103.012 18.995 102.436C18.387 101.86 18.083 101.096 18.083 100.144C18.083 98.856 18.495 97.812 19.319 97.012C20.151 96.204 21.207 95.8 22.487 95.8C22.775 95.8 23.063 95.832 23.351 95.896C23.439 96.16 23.487 96.46 23.495 96.796C23.663 96.74 23.831 96.712 23.999 96.712ZM22.523 98.38C22.523 98.156 22.575 97.904 22.679 97.624C22.791 97.344 22.967 97.12 23.207 96.952C22.151 97.176 21.423 97.604 21.023 98.236C20.679 98.78 20.507 99.34 20.507 99.916C20.507 100.492 20.623 100.956 20.855 101.308C21.095 101.652 21.399 101.824 21.767 101.824C22.583 101.824 23.159 101.292 23.495 100.228C22.847 99.828 22.523 99.212 22.523 98.38ZM28.1131 105.388C27.6171 105.388 27.2691 105.264 27.0691 105.016C26.8771 104.776 26.7811 104.424 26.7811 103.96C26.7811 103.504 26.8771 102.58 27.0691 101.188C27.2691 99.796 27.4611 98.608 27.6451 97.624L26.9731 96.664C27.4691 96.376 27.8971 96.16 28.2571 96.016C28.6171 95.864 28.9731 95.788 29.3251 95.788C29.9011 95.788 30.1891 96.168 30.1891 96.928C30.1891 97.032 30.1731 97.244 30.1411 97.564L30.2611 97.624C30.4931 97.048 30.8291 96.6 31.2691 96.28C31.7091 95.952 32.2251 95.788 32.8171 95.788C33.4171 95.788 33.8931 96.06 34.2451 96.604C34.5971 97.14 34.7731 97.808 34.7731 98.608C34.7731 99.68 34.3971 100.656 33.6451 101.536C33.2771 101.968 32.7851 102.32 32.1691 102.592C31.5531 102.856 30.8651 102.988 30.1051 102.988C29.8731 102.988 29.5691 102.968 29.1931 102.928C29.1691 103.208 29.1571 103.468 29.1571 103.708C29.1571 104.22 29.2811 104.584 29.5291 104.8C29.0811 105.192 28.6091 105.388 28.1131 105.388ZM29.6851 100.42L29.4091 101.812C30.3771 101.788 31.1491 101.472 31.7251 100.864C32.3091 100.248 32.6011 99.576 32.6011 98.848C32.6011 98.472 32.5251 98.172 32.3731 97.948C32.2291 97.716 32.0171 97.6 31.7371 97.6C30.7451 97.6 30.0611 98.54 29.6851 100.42ZM46.1903 95.8C47.1583 95.8 47.6423 96.284 47.6423 97.252C47.6423 97.668 47.5223 98.372 47.2823 99.364C47.0503 100.356 46.9343 101.104 46.9343 101.608C46.9343 102.112 47.0183 102.48 47.1863 102.712C46.7623 103.104 46.3143 103.3 45.8423 103.3C44.9223 103.3 44.4623 102.804 44.4623 101.812C44.4623 101.444 44.5823 100.82 44.8223 99.94C45.0623 99.06 45.1823 98.488 45.1823 98.224C45.1823 97.864 45.0463 97.684 44.7743 97.684C44.5503 97.684 44.2943 97.784 44.0063 97.984C43.7183 98.176 43.4383 98.44 43.1663 98.776C42.9023 99.104 42.6783 99.524 42.4943 100.036C42.3103 100.54 42.2183 101.056 42.2183 101.584C42.2183 102.104 42.3023 102.48 42.4703 102.712C42.0463 103.104 41.5983 103.3 41.1263 103.3C40.2063 103.3 39.7463 102.804 39.7463 101.812C39.7463 101.22 39.9063 100.02 40.2263 98.212C40.4983 96.62 40.6543 95.728 40.6943 95.536L40.0223 94.576C41.0223 93.992 41.8103 93.7 42.3863 93.7C42.7143 93.7 42.9463 93.768 43.0823 93.904C43.2183 94.032 43.2863 94.248 43.2863 94.552C43.2863 95.128 43.2303 95.756 43.1183 96.436C43.0063 97.116 42.9023 97.616 42.8063 97.936L42.9263 97.996C43.7823 96.532 44.8703 95.8 46.1903 95.8ZM54.6435 96.712C55.0915 96.712 55.4755 96.892 55.7955 97.252C56.1235 97.612 56.2875 98.136 56.2875 98.824C56.2875 99.504 56.1675 100.136 55.9275 100.72C55.6875 101.296 55.3715 101.768 54.9795 102.136C54.5875 102.504 54.1435 102.792 53.6475 103C53.1515 103.2 52.6435 103.3 52.1235 103.3C51.0755 103.3 50.2475 103.012 49.6395 102.436C49.0315 101.86 48.7275 101.096 48.7275 100.144C48.7275 98.856 49.1395 97.812 49.9635 97.012C50.7955 96.204 51.8515 95.8 53.1315 95.8C53.4195 95.8 53.7075 95.832 53.9955 95.896C54.0835 96.16 54.1315 96.46 54.1395 96.796C54.3075 96.74 54.4755 96.712 54.6435 96.712ZM53.1675 98.38C53.1675 98.156 53.2195 97.904 53.3235 97.624C53.4355 97.344 53.6115 97.12 53.8515 96.952C52.7955 97.176 52.0675 97.604 51.6675 98.236C51.3235 98.78 51.1515 99.34 51.1515 99.916C51.1515 100.492 51.2675 100.956 51.4995 101.308C51.7395 101.652 52.0435 101.824 52.4115 101.824C53.2275 101.824 53.8035 101.292 54.1395 100.228C53.4915 99.828 53.1675 99.212 53.1675 98.38ZM59.4416 103.3C58.7376 103.3 58.2456 103.128 57.9656 102.784C57.6856 102.44 57.5456 102.008 57.5456 101.488C57.5456 100.96 57.6336 100.24 57.8096 99.328C57.9856 98.416 58.0736 97.756 58.0736 97.348C58.0736 96.94 57.9896 96.62 57.8216 96.388C58.5656 95.996 59.1936 95.8 59.7056 95.8C60.0336 95.8 60.2696 95.868 60.4136 96.004C60.5656 96.132 60.6416 96.344 60.6416 96.64C60.6416 96.936 60.5176 97.664 60.2696 98.824C60.0296 99.976 59.9096 100.688 59.9096 100.96C59.9096 101.232 59.9856 101.448 60.1376 101.608C60.2896 101.76 60.4896 101.836 60.7376 101.836C60.9856 101.836 61.2496 101.74 61.5296 101.548C61.8096 101.348 62.0376 101.068 62.2136 100.708C62.3256 100.06 62.5456 99.036 62.8736 97.636L62.1536 96.676C62.9616 96.092 63.7296 95.8 64.4576 95.8C64.8176 95.8 65.0736 95.868 65.2256 96.004C65.3856 96.132 65.4656 96.332 65.4656 96.604C65.4656 96.868 65.3176 97.632 65.0216 98.896C64.7336 100.16 64.5896 101.06 64.5896 101.596C64.5896 102.124 64.7136 102.496 64.9616 102.712C64.5136 103.104 64.0416 103.3 63.5456 103.3C63.0576 103.3 62.7056 103.192 62.4896 102.976C62.2736 102.76 62.1656 102.476 62.1656 102.124L62.0456 102.064C61.7816 102.448 61.4136 102.752 60.9416 102.976C60.4776 103.192 59.9776 103.3 59.4416 103.3ZM70.4177 97.396C70.1217 97.484 69.8857 97.612 69.7097 97.78C69.5337 97.94 69.3777 98.172 69.2417 98.476C70.5937 98.676 71.5457 98.964 72.0977 99.34C72.6497 99.716 72.9257 100.252 72.9257 100.948C72.9257 101.388 72.8017 101.772 72.5537 102.1C72.3057 102.42 71.9937 102.664 71.6177 102.832C70.8817 103.144 70.1577 103.3 69.4457 103.3C67.4217 103.3 66.4097 102.864 66.4097 101.992C66.4097 101.552 66.6057 101.112 66.9977 100.672C67.1977 100.952 67.4977 101.192 67.8977 101.392C68.3057 101.592 68.7017 101.692 69.0857 101.692C69.7497 101.692 70.1497 101.4 70.2857 100.816C69.0697 100.672 68.1897 100.4 67.6457 100C67.1017 99.6 66.8297 99.036 66.8297 98.308C66.8297 97.732 67.0177 97.248 67.3937 96.856C67.7777 96.464 68.2497 96.192 68.8097 96.04C69.3777 95.88 70.0137 95.8 70.7177 95.8C71.4297 95.8 72.0137 95.936 72.4697 96.208C72.9337 96.472 73.1657 96.796 73.1657 97.18C73.1657 97.564 73.0297 97.86 72.7577 98.068C72.4937 98.276 72.2017 98.38 71.8817 98.38C71.5697 98.38 71.2817 98.296 71.0177 98.128C70.7617 97.96 70.5617 97.716 70.4177 97.396ZM77.6126 103.3C76.5166 103.3 75.6686 103.016 75.0686 102.448C74.4766 101.88 74.1806 101.112 74.1806 100.144C74.1806 98.856 74.6206 97.812 75.5006 97.012C76.3886 96.204 77.5006 95.8 78.8366 95.8C79.5806 95.8 80.1446 95.968 80.5286 96.304C80.9126 96.632 81.1046 97.068 81.1046 97.612C81.1046 98.356 80.7406 98.976 80.0126 99.472C79.2926 99.96 78.1766 100.208 76.6646 100.216C76.6886 100.728 76.8046 101.132 77.0126 101.428C77.2206 101.716 77.4806 101.86 77.7926 101.86C78.1046 101.86 78.3726 101.756 78.5966 101.548C78.8286 101.34 78.9446 101 78.9446 100.528C80.1126 100.528 80.6966 100.804 80.6966 101.356C80.6966 101.828 80.4086 102.272 79.8326 102.688C79.2566 103.096 78.5166 103.3 77.6126 103.3ZM78.6326 97.204C78.2246 97.204 77.8486 97.408 77.5046 97.816C77.1686 98.224 76.9246 98.704 76.7726 99.256C77.5726 99.192 78.1726 99.012 78.5726 98.716C78.9806 98.412 79.1846 98.092 79.1846 97.756C79.1846 97.596 79.1326 97.464 79.0286 97.36C78.9326 97.256 78.8006 97.204 78.6326 97.204Z" fill="#00FFC2"/>
</svg>
